<?xml version="1.0" standalone="no"?><!DOCTYPE svg PUBLIC "-//W3C//DTD SVG 1.1//EN" "http://www.w3.org/Graphics/SVG/1.1/DTD/svg11.dtd"><svg t="1636554547370" class="icon" viewBox="0 0 1024 1024" version="1.1" xmlns="http://www.w3.org/2000/svg" p-id="1213" xmlns:xlink="http://www.w3.org/1999/xlink" width="200" height="200"><defs><style type="text/css"></style></defs><path d="M819.2 785.066667H204.8a136.533333 136.533333 0 0 1-136.533333-136.533334v-273.066666a136.533333 136.533333 0 0 1 136.533333-136.533334h614.4a136.533333 136.533333 0 0 1 136.533333 136.533334v273.066666a136.533333 136.533333 0 0 1-136.533333 136.533334zM204.8 307.2a68.266667 68.266667 0 0 0-68.266667 68.266667v273.066666a68.266667 68.266667 0 0 0 68.266667 68.266667h614.4a68.266667 68.266667 0 0 0 68.266667-68.266667v-273.066666a68.266667 68.266667 0 0 0-68.266667-68.266667z" p-id="1214"></path><path d="M682.666667 546.133333H341.333333a34.133333 34.133333 0 0 1 0-68.266666h341.333334a34.133333 34.133333 0 0 1 0 68.266666z" p-id="1215"></path></svg>