<svg width="60" height="60" viewBox="0 0 60 60" xmlns="http://www.w3.org/2000/svg"><g fill="#55D187" fill-rule="evenodd"><path d="M23 60C10.297 60 0 49.703 0 37V23C0 10.297 10.297 0 23 0h14c12.703 0 23 10.297 23 23v14c0 12.703-10.297 23-23 23H23z" opacity=".21"/><g fill-rule="nonzero"><path d="M19.111 40.889h23.333a1.556 1.556 0 110 3.111H17.556c-.86 0-1.556-.696-1.556-1.556V17.556a1.556 1.556 0 113.111 0v23.333z"/><path d="M24.913 34.175a1.556 1.556 0 11-2.27-2.128l5.833-6.222a1.556 1.556 0 012.145-.12l4.604 3.93 5.999-7.599a1.556 1.556 0 012.441 1.928l-7 8.867a1.556 1.556 0 01-2.23.219l-4.704-4.014-4.818 5.139z" opacity=".657"/></g></g></svg>