<?xml version="1.0" standalone="no"?><!DOCTYPE svg PUBLIC "-//W3C//DTD SVG 1.1//EN" "http://www.w3.org/Graphics/SVG/1.1/DTD/svg11.dtd"><svg t="1637051607982" class="icon" viewBox="0 0 1024 1024" version="1.1" xmlns="http://www.w3.org/2000/svg" p-id="7437" xmlns:xlink="http://www.w3.org/1999/xlink" width="200" height="200"><defs><style type="text/css"></style></defs><path d="M752.6 127.9c38.4 0 74.5 14.9 101.6 42.1 27.1 27.1 42.1 63.2 42.1 101.6 0 38.4-14.9 74.5-42.1 101.6-27.1 27.1-63.2 42.1-101.6 42.1h-0.6c-38.4 0-74.5-14.9-101.6-42.1-27.1-27.1-42.1-63.2-42.1-101.6 0-38.4 14.9-74.5 42.1-101.6 27.1-27.1 63.2-42.1 101.6-42.1h0.6m0-64h-0.6c-114.7 0-207.7 93-207.7 207.7 0 114.7 93 207.7 207.7 207.7h0.6c114.7 0 207.7-93 207.7-207.7 0-114.7-93-207.7-207.7-207.7z m-321.4 0.1h-319c-26.5 0-48 21.5-48 48v319c0 26.5 21.5 48 48 48h319c26.5 0 48-21.5 48-48V112c0-26.5-21.4-48-48-48z m-16.4 326.5c0 13.3-10.7 24-24 24H152.7c-13.3 0-24-10.7-24-24V152.4c0-13.3 10.7-24 24-24h238.1c13.3 0 24 10.7 24 24v238.1z m16.4 154.1h-319c-26.5 0-48 21.5-48 48v319c0 26.5 21.5 48 48 48h319c26.5 0 48-21.5 48-48v-319c0-26.6-21.5-48-48-48z m-16.4 326.5c0 13.3-10.7 24-24 24H152.7c-13.3 0-24-10.7-24-24V633c0-13.3 10.7-24 24-24h238.1c13.3 0 24 10.7 24 24v238.1z m497.4-327h-319c-26.5 0-48 21.5-48 48v319c0 26.5 21.5 48 48 48h319c26.5 0 48-21.5 48-48v-319c0-26.5-21.5-48-48-48z m-16.5 326.6c0 13.3-10.7 24-24 24H633.6c-13.3 0-24-10.7-24-24V632.6c0-13.3 10.7-24 24-24h238.1c13.3 0 24 10.7 24 24v238.1z" p-id="7438"></path></svg>