<?xml version="1.0" standalone="no"?><!DOCTYPE svg PUBLIC "-//W3C//DTD SVG 1.1//EN" "http://www.w3.org/Graphics/SVG/1.1/DTD/svg11.dtd"><svg t="1567577807229" class="icon" viewBox="0 0 1024 1024" version="1.1" xmlns="http://www.w3.org/2000/svg" p-id="1775" xmlns:xlink="http://www.w3.org/1999/xlink" width="200" height="200"><defs><style type="text/css"></style></defs><path d="M1006.023111 515.868444L575.260444 86.243556a91.022222 91.022222 0 0 0-128.796444 0L17.976889 515.868444a22.755556 22.755556 0 1 0 32.312889 32.085334l52.110222-52.337778v298.097778a179.541333 179.541333 0 0 0 170.666667 170.666666h477.866666a179.541333 179.541333 0 0 0 170.666667-170.666666V496.071111l52.110222 52.110222a22.755556 22.755556 0 1 0 32.312889-32.312889z m-129.934222-52.110222v329.955556a134.257778 134.257778 0 0 1-125.155556 125.155555H273.066667a134.257778 134.257778 0 0 1-125.155556-125.155555v-329.955556a22.755556 22.755556 0 0 0-2.958222-10.695111L477.866667 118.556444a45.511111 45.511111 0 0 1 64.398222 0l336.554667 334.734223a22.755556 22.755556 0 0 0-2.730667 10.467555z" p-id="1776"></path><path d="M512 709.745778a213.902222 213.902222 0 0 1-168.391111-81.237334 45.511111 45.511111 0 0 0 7.054222-24.348444 46.876444 46.876444 0 1 0-47.786667 46.648889 261.461333 261.461333 0 0 0 408.462223 12.060444 22.755556 22.755556 0 0 0 4.778666-12.515555 46.876444 46.876444 0 1 0-40.732444-15.928889 215.495111 215.495111 0 0 1-163.384889 75.320889z" p-id="1777"></path></svg>