<?xml version="1.0" standalone="no"?><!DOCTYPE svg PUBLIC "-//W3C//DTD SVG 1.1//EN" "http://www.w3.org/Graphics/SVG/1.1/DTD/svg11.dtd"><svg t="1636554596681" class="icon" viewBox="0 0 1024 1024" version="1.1" xmlns="http://www.w3.org/2000/svg" p-id="10372" xmlns:xlink="http://www.w3.org/1999/xlink" width="200" height="200"><defs><style type="text/css"></style></defs><path d="M576 256H96c-19.2 0-32-12.8-32-32s12.8-32 32-32h480c19.2 0 32 12.8 32 32s-12.8 32-32 32zM576 544H96c-19.2 0-32-12.8-32-32s12.8-32 32-32h480c19.2 0 32 12.8 32 32s-12.8 32-32 32zM928 832H96c-19.2 0-32-12.8-32-32s12.8-32 32-32h832c19.2 0 32 12.8 32 32s-12.8 32-32 32zM928 544c9.6 0 16-3.2 22.4-9.6 12.8-12.8 9.6-32-3.2-44.8l-134.4-121.6 134.4-121.6c12.8-12.8 12.8-32 3.2-44.8-12.8-12.8-32-12.8-44.8-3.2l-160 144c-6.4 6.4-9.6 16-9.6 22.4s3.2 19.2 9.6 22.4l160 144c6.4 9.6 16 12.8 22.4 12.8z" p-id="10373"></path></svg>