<?xml version="1.0" standalone="no"?><!DOCTYPE svg PUBLIC "-//W3C//DTD SVG 1.1//EN" "http://www.w3.org/Graphics/SVG/1.1/DTD/svg11.dtd"><svg t="1579228268276" class="icon" viewBox="0 0 1024 1024" version="1.1" xmlns="http://www.w3.org/2000/svg" p-id="12938" xmlns:xlink="http://www.w3.org/1999/xlink" width="200" height="200"><defs><style type="text/css"></style></defs><path d="M512.485824 1023.99536h-0.494469a25.357382 25.357382 0 0 1-18.422139-7.429713l-258.302976-168.626594A278.931207 278.931207 0 0 1 81.676574 598.688662V215.056823a63.279348 63.279348 0 0 1 42.562367-59.86878L498.120866 3.817148a27.132399 27.132399 0 0 1 27.753656 0L899.743769 155.188043a63.279348 63.279348 0 0 1 42.575045 59.86878V598.688662a278.931207 278.931207 0 0 1-153.576987 249.186998l-258.302977 168.626593a25.357382 25.357382 0 0 1-17.940348 7.429713z m-0.494469-971.086319l-369.380991 149.608556c-0.507148 0.202859-1.014295 0.393039-1.534121 0.570541a12.678691 12.678691 0 0 0-8.684904 12.032078V598.688662a226.859822 226.859822 0 0 0 126.786912 204.431218 22.821644 22.821644 0 0 1 2.535739 1.496085l250.277365 163.415651 250.22665-163.415651a22.999146 22.999146 0 0 1 2.535738-1.496085 226.859822 226.859822 0 0 0 126.786912-204.431218V215.056823a12.678691 12.678691 0 0 0-8.697582-12.032078c-0.507148-0.177502-1.026974-0.367682-1.521443-0.570541z" p-id="12939"></path><path d="M511.446171 516.644851a144.663867 144.663867 0 1 1 144.663867-144.663867 144.82869 144.82869 0 0 1-144.663867 144.663867z m0-238.60029a93.949102 93.949102 0 1 0 93.949102 93.936423 94.050532 94.050532 0 0 0-93.949102-93.936423z" p-id="12940"></path><path d="M513.614227 762.928428a25.357382 25.357382 0 0 1-25.357382-25.357382V489.487095a25.357382 25.357382 0 1 1 50.714765 0v248.083951a25.357382 25.357382 0 0 1-25.357383 25.357382z" p-id="12941"></path><path d="M596.710369 597.991334h-69.048152a25.357382 25.357382 0 0 1 0-50.714765h69.048152a25.357382 25.357382 0 0 1 0 50.714765z" p-id="12942"></path></svg>