<?xml version="1.0" encoding="UTF-8"?><svg width="48" height="48" viewBox="0 0 48 48" fill="none" xmlns="http://www.w3.org/2000/svg"><path d="M25 41H38V34" stroke="#333" stroke-width="2" stroke-linecap="round" stroke-linejoin="round"/><path d="M25 7H38V14" stroke="#333" stroke-width="2" stroke-linecap="round" stroke-linejoin="round"/><path d="M25 34.2432V44L10 38.6187V34" stroke="#333" stroke-width="2" stroke-linecap="round" stroke-linejoin="round"/><path d="M25 13.973V4L10 9.38125V13.973" stroke="#333" stroke-width="2" stroke-linecap="round" stroke-linejoin="round"/><rect x="4" y="14" width="40" height="20" rx="2" stroke="#333" stroke-width="2" stroke-linecap="round" stroke-linejoin="round"/><path d="M10 19V29" stroke="#333" stroke-width="2" stroke-linecap="round"/><path d="M21 19V29" stroke="#333" stroke-width="2" stroke-linecap="round"/><path d="M35 20V28" stroke="#333" stroke-width="2" stroke-linecap="round" stroke-linejoin="round"/><path d="M32 20H35H38" stroke="#333" stroke-width="2" stroke-linecap="round" stroke-linejoin="round"/><path d="M10 19H13C14.6569 19 16 20.3431 16 22V22C16 23.6569 14.6569 25 13 25H10" stroke="#333" stroke-width="2" stroke-linecap="round" stroke-linejoin="round"/><path d="M21 19H24C25.6569 19 27 20.3431 27 22V22C27 23.6569 25.6569 25 24 25H21" stroke="#333" stroke-width="2" stroke-linecap="round" stroke-linejoin="round"/></svg>