<svg width="60" height="60" viewBox="0 0 60 60" xmlns="http://www.w3.org/2000/svg"><g fill="none" fill-rule="evenodd"><path d="M23 60C10.297 60 0 49.703 0 37V23C0 10.297 10.297 0 23 0h14c12.703 0 23 10.297 23 23v14c0 12.703-10.297 23-23 23H23z" fill="#FFD164" opacity=".21"/><path d="M15 24.316l12.9 7.449c.14.08.285.138.433.174v14.446L15.92 39.039a1.876 1.876 0 01-.92-1.614V24.316zm30-.198v13.307c0 .663-.35 1.276-.92 1.614l-12.413 7.346V31.813l.09-.048L45 24.118z" fill="#FFC741"/><path d="M15.405 20.701a1.87 1.87 0 01.589-.49l13.125-6.99a1.875 1.875 0 011.762 0l13.125 6.99c.18.095.338.217.474.359l-14.39 8.308a1.675 1.675 0 00-.261.186 1.675 1.675 0 00-.262-.186L15.405 20.7z" fill="#FFD164" opacity=".659"/></g></svg>