<?xml version="1.0" standalone="no"?><!DOCTYPE svg PUBLIC "-//W3C//DTD SVG 1.1//EN" "http://www.w3.org/Graphics/SVG/1.1/DTD/svg11.dtd"><svg t="1579227661252" class="icon" viewBox="0 0 1025 1024" version="1.1" xmlns="http://www.w3.org/2000/svg" p-id="2162" xmlns:xlink="http://www.w3.org/1999/xlink" width="200.1953125" height="200"><defs><style type="text/css"></style></defs><path d="M642.969937 1022.986l-0.311 0c-7.846999 0-15.161999-3.964-19.441998-10.536999-24.645998-37.796996-66.219994-60.361994-111.215989-60.361994-44.996996 0-86.570992 22.564998-111.215989 60.361994-4.286 6.572999-11.596999 10.536999-19.441998 10.536999-4.076 0-8.387999-1.072-11.911999-3.109l-225.239978-130.039987c-10.686999-6.170999-14.678999-19.623998-9.084999-30.624997 20.476998-40.266996 19.250998-87.602991-3.273-126.613988-22.712998-39.347996-63.442994-64.088994-108.954989-66.182994-7.905999-0.367-15.081999-4.74-19.037998-11.595999l-0.738-1.273C1.07 650.023037 0.001 646.026037 0.001 641.953037L0.001 383.026063c0-12.444999 9.813999-22.676998 22.249998-23.191998 45.771996-1.894 86.736992-26.645997 109.576989-66.215994 23.165998-40.125996 23.860998-88.488991 1.857-129.356987-3.797-7.060999-3.691-15.574998 0.288-22.532998 2.037-3.566 5.041-6.614999 8.596999-8.666999L367.657964 3.1091c10.866999-6.267999 24.766998-2.771 31.357997 7.904999 24.394998 39.518996 66.632993 63.109994 112.979989 63.109994 46.345995 0 88.583991-23.590998 112.989989-63.109994 6.599999-10.675999 20.498998-14.171999 31.351997-7.904999l225.083978 129.951987c3.556 2.052 6.498999 5.009 8.540999 8.573999 3.979 6.953999 4.146 15.568998 0.349 22.620998-22.004998 40.882996-21.307998 89.244991 1.853 129.361987 22.847998 39.563996 63.810994 64.316994 109.581989 66.215994 12.435999 0.515 22.249998 10.746999 22.249998 23.191998l0 258.927975c0 4.072-1.068 8.063999-3.102 11.591999l-0.733 1.273c-3.955 6.859999-11.131999 11.228999-19.041998 11.595999-45.511996 2.094-86.240992 26.834997-108.959989 66.182994-22.523998 39.016996-23.743998 86.356992-3.269 126.613988 5.593999 10.996999 1.602 24.454998-9.083999 30.624997l-225.240978 130.039987C651.046936 1021.913 647.039937 1022.986 642.969937 1022.986zM511.99695 905.668012c53.378995 0 103.18399 23.508998 137.034987 63.807994l189.678981-109.507989c-17.978998-49.457995-13.442999-104.33699 13.252999-150.580985 27.054997-46.857995 73.016993-78.369992 125.615988-87.092991l0-218.369979c-52.604995-8.707999-98.52899-40.190996-125.615988-87.099991-27.471997-47.585995-31.532997-103.75199-11.980999-154.090985L651.436936 53.880095c-33.817997 42.103996-84.481992 66.660993-139.439986 66.660993-54.954995 0-105.62299-24.561998-139.436986-66.660993L184.010982 162.738084c19.553998 50.338995 15.491998 106.49999-11.984999 154.090985-27.082997 46.903995-73.006993 78.391992-125.611988 87.100991L46.413995 622.300039c52.599995 8.722999 98.55699 40.237996 125.611988 87.090991 26.695997 46.239995 31.235997 101.11499 13.257999 150.580985L374.954963 969.480005C408.81096 929.172009 458.615955 905.668012 511.99695 905.668012z" p-id="2163"></path><path d="M511.99695 730.201029c-119.637988 0-216.973979-97.33599-216.973979-216.973979 0-119.640988 97.33599-216.977979 216.973979-216.977979 119.640988 0 216.977979 97.33699 216.977979 216.977979C728.973929 632.865038 631.637938 730.201029 511.99695 730.201029zM511.99695 342.666067c-94.044991 0-170.551983 76.512993-170.551983 170.556983 0 94.044991 76.506993 170.552983 170.551983 170.552983 94.043991 0 170.555983-76.507993 170.555983-170.552983C682.552933 419.179059 606.036941 342.666067 511.99695 342.666067z" p-id="2164"></path></svg>