<svg width="60" height="60" viewBox="0 0 60 60" xmlns="http://www.w3.org/2000/svg"><g fill="#FF9066" fill-rule="evenodd"><path d="M23 60C10.297 60 0 49.703 0 37V23C0 10.297 10.297 0 23 0h14c12.703 0 23 10.297 23 23v14c0 12.703-10.297 23-23 23H23z" opacity=".3"/><path d="M29.13 23.347h.418a.5.5 0 01.497.45l.622 6.217 4.414 2.523a.5.5 0 01.252.434v.388a.5.5 0 01-.631.483l-6.303-1.72a.5.5 0 01-.367-.52l.6-7.793a.5.5 0 01.498-.462z" opacity=".78"/><path d="M22.017 14.923a.5.5 0 01.705.061l1.797 2.143A13.955 13.955 0 0130 16.014c7.732 0 14 6.268 14 14 0 7.627-6.1 13.83-13.687 13.996l-.313.004c-7.732 0-14-6.268-14-14 0-1.313.18-2.584.519-3.79l2.567.72c-.277.99-.42 2.02-.42 3.07 0 6.26 5.075 11.333 11.334 11.333 6.26 0 11.333-5.074 11.333-11.333 0-6.162-4.916-11.175-11.04-11.33L30 18.681c-1.268 0-2.503.207-3.668.605l1.801 2.147a.5.5 0 01-.355.82l-7.044.4a.5.5 0 01-.515-.615l1.633-6.848a.5.5 0 01.165-.267z" opacity=".901"/></g></svg>