<svg width="60" height="60" viewBox="0 0 60 60" xmlns="http://www.w3.org/2000/svg"><g fill="#0593FF" fill-rule="evenodd"><path d="M23 60C10.297 60 0 49.703 0 37V23C0 10.297 10.297 0 23 0h14c12.703 0 23 10.297 23 23v14c0 12.703-10.297 23-23 23H23z" opacity=".21"/><g fill-rule="nonzero"><path d="M38 24.667a4 4 0 110 8 4 4 0 010-8zM26 18a5.333 5.333 0 110 10.667A5.333 5.333 0 0126 18z" opacity=".588"/><path d="M37.469 34.001L37.317 34c4.61 0 8.399 2.293 8.681 7.2.011.195 0 .8-.723.8h-5.142c0-3.001-.991-5.77-2.664-7.999zm-11.491-2.668c6.384 0 11.629 3.058 12.02 9.6.015.261 0 1.067-1.002 1.067H14.97c-.334 0-.997-.721-.97-1.068.518-6.363 5.683-9.599 11.978-9.599z"/></g></g></svg>